<svg xmlns="http://www.w3.org/2000/svg" width="1024" height="1024" viewBox="0 0 1024 1024">
<g>
<path d="M 730.76 963.49 C717.23,966.68 702.41,964.44 688.19,957.04 C673.82,949.56 661.19,937.94 640.19,912.85 C628.52,898.90 614.69,886.41 595.03,872.06 C575.33,857.69 557.63,841.56 550.49,831.50 C537.84,813.67 531.00,791.91 531.00,769.50 C531.00,739.29 542.83,711.14 564.26,690.34 C587.14,668.13 614.41,657.63 652.57,656.31 C675.20,655.53 685.87,656.74 724.50,664.50 C770.62,673.76 778.95,674.53 795.72,671.07 C808.48,668.44 818.37,663.46 826.72,655.48 C830.44,651.91 833.78,649.00 834.15,649.00 C834.51,649.00 835.55,651.14 836.45,653.75 C843.94,675.47 833.15,700.20 811.74,710.38 C800.27,715.83 791.03,717.51 773.00,717.42 C756.41,717.34 748.54,716.25 722.50,710.45 C666.45,697.96 638.36,698.13 612.08,711.11 C603.67,715.25 600.26,717.64 594.50,723.41 C581.45,736.46 575.28,753.03 576.27,772.36 C577.56,797.50 589.45,814.49 621.71,837.28 C650.08,857.33 660.32,866.93 674.00,886.29 C678.12,892.13 681.73,896.92 682.01,896.95 C682.29,896.98 682.35,890.28 682.15,882.06 C681.72,864.52 683.41,852.50 688.14,839.43 C689.84,834.74 691.06,830.76 690.86,830.59 C690.66,830.43 687.35,828.47 683.50,826.23 C673.69,820.54 663.60,813.23 656.07,806.37 C646.86,797.97 635.21,784.34 632.25,778.51 C627.73,769.59 629.44,759.64 636.66,752.81 C640.54,749.15 644.03,748.00 651.32,748.00 C659.16,748.01 662.42,749.92 668.73,758.22 C687.15,782.46 709.65,796.76 736.88,801.53 C752.28,804.23 766.81,802.80 783.62,796.94 C827.49,781.64 859.28,733.39 859.37,682.00 C859.40,666.97 857.73,657.11 852.79,643.00 C848.84,631.72 844.95,625.09 837.85,617.50 C827.08,605.99 813.80,599.16 797.91,596.99 C779.12,594.41 757.58,601.09 743.95,613.71 C734.28,622.66 725.91,625.00 717.50,621.10 C707.01,616.25 702.31,604.49 706.87,594.50 C709.26,589.25 724.26,575.12 732.80,570.07 C740.66,565.42 752.02,560.75 762.80,557.74 C769.51,555.87 773.06,555.59 790.50,555.60 C809.46,555.62 810.97,555.76 819.50,558.37 C855.43,569.37 881.37,595.40 893.60,632.73 C895.47,638.44 897.00,643.99 897.00,645.06 C897.00,648.41 898.85,647.21 903.61,640.75 C912.75,628.34 919.36,614.25 923.61,598.17 C927.41,583.75 928.03,562.58 925.09,547.24 C921.04,526.08 914.66,510.49 904.24,496.30 C901.70,492.84 899.13,490.00 898.53,490.00 C897.93,490.00 894.53,492.96 890.97,496.59 C879.62,508.13 866.94,515.92 850.50,521.42 C836.15,526.22 829.92,525.87 822.62,519.85 C809.80,509.25 814.29,488.09 830.24,483.99 C845.38,480.09 853.57,475.33 863.92,464.39 C872.39,455.45 877.48,446.78 881.16,435.00 C883.11,428.76 883.49,425.39 883.45,415.00 C883.41,403.68 883.11,401.65 880.29,393.45 C876.04,381.10 870.97,372.80 862.58,364.46 C847.85,349.81 827.67,343.85 808.50,348.48 C800.12,350.50 798.13,350.37 792.08,347.35 C788.34,345.49 785.94,343.39 783.96,340.28 C778.21,331.21 779.20,322.51 786.86,314.86 C793.49,308.23 798.58,306.86 818.86,306.25 L 835.22 305.76 L 834.59 301.82 C833.12,292.67 826.30,276.88 819.12,266.02 C805.97,246.13 783.07,230.63 760.89,226.62 L 757.28 225.96 L 756.68 242.73 C756.05,260.56 754.83,267.79 749.86,283.00 C742.68,304.99 727.54,329.63 718.53,333.99 C707.17,339.48 692.34,333.09 689.06,321.28 C686.92,313.58 688.31,309.03 696.39,297.16 C703.84,286.21 706.08,281.61 710.30,268.50 C714.84,254.40 716.39,241.26 714.98,228.73 C710.92,192.60 691.57,162.66 663.37,148.91 C653.31,144.00 644.35,142.04 631.91,142.02 C615.57,141.99 603.00,146.18 593.90,154.69 C584.34,163.63 579.21,175.17 577.10,192.50 C575.84,202.88 575.49,624.00 576.75,623.99 C577.96,623.98 590.98,603.38 596.73,592.36 C616.32,554.85 626.36,512.98 626.31,469.00 C626.28,445.24 624.43,427.20 617.98,387.91 C612.14,352.33 610.55,336.32 611.35,321.00 C612.58,297.59 616.94,280.73 626.99,260.50 C635.17,244.05 640.98,235.96 653.97,222.94 C663.54,213.34 683.27,199.00 686.90,199.00 C688.27,199.00 689.30,201.01 691.36,207.75 C694.58,218.31 697.00,230.63 697.00,236.47 C697.00,240.53 696.64,241.08 690.35,246.45 C672.96,261.28 662.62,278.10 656.23,301.93 C653.96,310.38 653.65,313.50 653.60,328.50 C653.56,343.10 653.88,346.84 655.90,355.00 C658.94,367.28 663.02,377.52 668.84,387.50 C674.94,397.97 691.49,414.75 702.31,421.45 C730.09,438.64 762.87,436.42 784.49,415.88 C792.69,408.09 796.80,406.00 803.90,406.00 C810.20,406.00 813.64,407.31 817.87,411.31 C822.22,415.43 824.00,419.70 824.00,426.00 C824.00,432.77 821.86,437.52 816.20,443.32 C794.81,465.23 759.80,477.71 729.89,474.08 C711.07,471.80 694.86,465.98 678.13,455.50 C672.43,451.92 667.54,449.00 667.27,449.00 C667.00,449.00 667.08,454.74 667.46,461.75 C668.20,475.50 666.88,499.01 664.41,516.00 C658.26,558.28 643.33,599.51 622.50,631.69 L 616.55 640.87 L 607.03 643.90 C579.84,652.53 555.47,669.56 537.99,692.16 L 531.29 700.82 L 530.77 690.66 C529.86,672.63 530.05,218.07 530.98,200.87 C532.74,168.38 540.33,147.84 556.92,130.64 C569.83,117.26 584.04,108.75 601.50,103.95 C611.60,101.17 639.01,100.08 650.87,101.99 C675.21,105.92 700.02,119.55 718.43,139.12 C728.22,149.53 732.99,156.49 740.59,171.46 L 746.67 183.45 L 757.98 184.71 C764.20,185.40 773.61,187.12 778.89,188.52 C791.29,191.80 810.21,201.00 821.00,208.98 C846.38,227.75 865.33,255.66 873.97,287.00 C876.62,296.59 878.99,311.05 879.00,317.62 L 879.00 322.73 L 886.75 329.41 C906.44,346.35 918.84,368.78 923.56,396.00 C925.78,408.74 925.10,430.22 922.14,441.30 L 920.06 449.10 L 927.10 457.26 C948.97,482.57 962.74,513.16 967.45,546.95 C975.14,602.13 952.08,661.33 909.57,695.52 L 900.41 702.89 L 898.63 712.16 C894.44,734.04 884.04,759.02 870.78,779.07 C862.11,792.17 842.67,811.57 829.44,820.31 C804.00,837.12 777.58,844.74 748.05,843.79 L 733.37 843.32 L 731.24 848.91 C726.57,861.16 725.55,866.99 725.58,881.00 C725.60,891.41 726.10,896.48 727.76,903.14 C731.51,918.19 738.82,936.74 745.49,948.12 C747.42,951.41 749.00,954.53 749.00,955.04 C749.00,956.57 737.48,961.91 730.76,963.49 ZM 186.43 805.31 C188.31,808.44 189.46,811.00 188.99,811.00 C187.02,811.00 165.03,787.93 160.14,780.74 C154.21,772.01 146.21,755.77 143.04,746.00 C140.58,738.43 138.05,724.74 137.88,718.12 C137.66,709.36 137.12,708.52 127.50,701.86 C122.55,698.44 113.06,690.21 106.42,683.57 C83.48,660.66 69.08,633.64 61.86,600.00 C58.82,585.84 58.53,552.45 61.33,538.59 C67.28,509.07 83.04,476.93 101.01,457.69 L 108.05 450.16 L 106.04 442.89 C99.76,420.24 101.65,395.33 111.46,371.25 C117.91,355.44 128.79,340.41 141.43,329.86 L 149.00 323.54 L 149.00 318.02 C149.01,314.99 149.69,308.23 150.53,303.00 C159.17,248.96 195.76,205.32 245.50,189.72 C254.90,186.78 270.31,184.00 277.27,184.00 C281.53,184.00 282.26,183.70 282.77,181.75 C284.01,176.92 295.19,156.16 299.87,149.99 C302.58,146.40 308.88,139.54 313.87,134.74 C331.39,117.84 351.64,107.13 374.90,102.45 C387.77,99.86 415.14,100.85 427.72,104.37 C455.25,112.06 476.85,130.41 487.08,154.78 C494.65,172.84 496.99,187.74 496.99,218.10 L 497.00 240.70 L 487.75 241.36 C479.33,241.96 457.85,245.83 453.86,247.46 C452.38,248.07 452.18,245.52 451.72,219.81 C451.15,188.31 450.20,181.63 444.57,169.50 C439.80,159.23 433.48,152.76 423.63,148.06 C413.66,143.30 407.64,142.00 395.61,142.00 C378.81,142.00 362.61,148.04 348.74,159.48 C334.76,171.02 321.55,192.00 328.27,192.00 C330.67,192.00 346.33,200.04 354.50,205.48 C364.67,212.25 379.45,226.04 382.25,231.39 C384.92,236.48 385.20,246.04 382.80,250.52 C378.87,257.87 372.29,262.00 364.50,262.00 C357.80,262.00 354.17,260.06 344.92,251.55 C324.79,233.01 308.07,226.02 283.82,226.01 C270.43,226.00 261.15,227.67 250.16,232.07 C234.75,238.24 218.19,251.91 208.66,266.31 C201.49,277.14 197.01,288.12 193.60,303.18 L 193.00 305.86 L 206.75 305.81 C226.57,305.74 238.78,309.10 253.00,318.52 C266.00,327.13 280.46,345.12 284.53,357.75 C288.81,370.98 280.07,384.67 266.65,385.78 C256.10,386.65 249.89,382.72 244.32,371.61 C237.78,358.59 231.06,352.37 219.76,348.85 C199.87,342.66 175.43,351.37 160.47,369.98 C145.00,389.24 140.36,415.03 148.15,438.50 C153.33,454.14 168.20,471.58 182.00,478.21 C186.12,480.20 191.98,482.33 195.00,482.95 C205.06,485.01 211.02,491.04 212.57,500.70 C213.76,508.14 209.64,517.30 203.15,521.68 C196.17,526.38 187.43,525.54 170.21,518.52 C158.46,513.73 148.32,507.12 138.59,497.91 C133.99,493.56 129.82,490.00 129.31,490.00 C127.90,490.00 119.61,501.71 115.12,510.05 C110.09,519.37 104.58,535.73 102.50,547.50 C99.08,566.79 101.14,591.70 107.57,608.77 C111.01,617.93 118.75,632.39 124.03,639.54 C128.87,646.11 144.79,663.00 146.13,663.00 C146.60,663.00 148.84,659.29 151.11,654.75 C156.30,644.41 162.62,634.52 169.82,625.50 C176.02,617.73 187.94,605.00 189.02,605.00 C189.41,605.00 188.17,609.14 186.27,614.20 C177.73,636.94 169.19,672.80 166.92,695.50 C165.44,710.28 166.25,737.82 168.55,751.00 C172.18,771.76 179.36,793.58 186.43,805.31 ZM 269.00 845.60 C269.00,847.42 251.21,842.24 243.00,838.03 C220.49,826.48 203.27,804.98 194.13,777.00 C188.04,758.36 185.60,741.13 185.56,716.50 C185.52,693.94 187.53,678.95 194.02,653.50 C206.88,603.01 219.95,580.26 248.36,558.85 C267.93,544.10 290.59,535.87 341.61,524.98 C373.48,518.17 388.25,513.24 404.27,504.06 C428.45,490.20 443.08,469.21 449.63,438.97 C450.98,432.74 451.33,422.05 451.71,374.75 C451.96,343.54 451.83,318.00 451.42,318.00 C450.12,318.00 439.78,324.08 433.00,328.84 C421.67,336.78 411.74,345.48 399.28,358.37 C371.76,386.85 346.91,425.54 316.22,487.74 L 302.78 514.98 L 298.64 516.05 C281.31,520.50 259.93,529.54 244.75,538.84 C241.04,541.12 238.00,542.84 238.00,542.66 C238.00,540.12 270.27,473.65 283.96,448.00 C315.60,388.70 341.94,350.14 369.89,322.20 C407.37,284.72 444.21,265.76 491.75,259.50 L 497.00 258.81 L 497.00 344.16 C496.99,436.39 496.96,436.96 491.45,458.00 C484.47,484.66 472.45,505.56 453.68,523.72 C430.59,546.06 404.16,558.39 356.50,569.05 C311.80,579.06 290.85,585.08 274.00,592.78 L 267.50 595.75 L 262.09 608.62 C249.60,638.37 240.38,666.84 236.54,687.50 C228.60,730.21 231.58,763.96 245.58,789.89 C247.55,793.53 250.21,800.78 251.50,806.00 C254.31,817.34 259.10,828.98 264.82,838.35 C267.12,842.12 269.00,845.38 269.00,845.60 ZM 394.50 884.50 C339.25,892.73 286.00,858.90 270.61,805.79 C264.15,783.49 264.63,758.84 271.95,736.99 C283.59,702.23 310.80,675.77 345.50,665.44 C352.66,663.31 357.30,662.66 368.17,662.26 C375.69,661.98 383.50,662.06 385.51,662.44 C390.16,663.31 397.50,669.94 399.06,674.69 C400.95,680.41 399.79,688.41 396.37,693.29 C391.61,700.07 386.95,702.02 373.24,702.98 C365.84,703.50 359.10,704.61 355.00,705.98 C331.99,713.67 314.68,732.85 308.95,757.00 C307.10,764.79 307.31,783.04 309.34,791.00 C312.34,802.80 318.56,813.59 327.48,822.51 C341.20,836.22 355.83,842.81 374.64,843.75 C387.61,844.39 397.35,842.37 409.50,836.50 C420.71,831.08 428.97,824.47 435.71,815.52 C442.34,806.71 446.51,798.23 449.02,788.43 C450.94,780.93 451.00,777.03 451.02,665.59 L 451.04 550.50 L 459.07 544.00 C470.83,534.47 485.78,517.04 493.20,504.22 L 496.50 498.50 L 496.78 638.00 L 496.79 644.60 C497.04,771.68 497.07,785.66 493.35,798.56 C492.83,800.38 492.23,802.17 491.55,804.26 C482.93,830.63 462.71,855.13 437.50,869.73 C424.12,877.48 410.71,882.08 394.50,884.50 Z" fill="rgb(52,106,113)"/>
<path d="M 0.00 512.00 L 0.00 0.00 L 512.00 0.00 L 1024.00 0.00 L 1024.00 512.00 L 1024.00 1024.00 L 512.00 1024.00 L 0.00 1024.00 L 0.00 512.00 ZM 730.76 963.49 C737.48,961.91 749.00,956.57 749.00,955.04 C749.00,954.53 747.42,951.41 745.49,948.12 C738.82,936.74 731.51,918.19 727.76,903.14 C726.10,896.48 725.60,891.41 725.58,881.00 C725.55,866.99 726.57,861.16 731.24,848.91 L 733.37 843.32 L 748.05 843.79 C777.58,844.74 804.00,837.12 829.44,820.31 C842.67,811.57 862.11,792.17 870.78,779.07 C884.04,759.02 894.44,734.04 898.63,712.16 L 900.41 702.89 L 909.57 695.52 C952.08,661.33 975.14,602.13 967.45,546.95 C962.74,513.16 948.97,482.57 927.10,457.26 L 920.06 449.10 L 922.14 441.30 C925.10,430.22 925.78,408.74 923.56,396.00 C918.84,368.78 906.44,346.35 886.75,329.41 L 879.00 322.73 L 879.00 317.62 C878.99,311.05 876.62,296.59 873.97,287.00 C865.33,255.66 846.38,227.75 821.00,208.98 C810.21,201.00 791.29,191.80 778.89,188.52 C773.61,187.12 764.20,185.40 757.98,184.71 L 746.67 183.45 L 740.59 171.46 C732.99,156.49 728.22,149.53 718.43,139.12 C700.02,119.55 675.21,105.92 650.87,101.99 C639.01,100.08 611.60,101.17 601.50,103.95 C584.04,108.75 569.83,117.26 556.92,130.64 C540.33,147.84 532.74,168.38 530.98,200.87 C530.05,218.07 529.86,672.63 530.77,690.66 L 531.29 700.82 L 537.99 692.16 C555.47,669.56 579.84,652.53 607.03,643.90 L 616.55 640.87 L 622.50 631.69 C643.33,599.51 658.26,558.28 664.41,516.00 C666.88,499.01 668.20,475.50 667.46,461.75 C667.08,454.74 667.00,449.00 667.27,449.00 C667.54,449.00 672.43,451.92 678.13,455.50 C694.86,465.98 711.07,471.80 729.89,474.08 C759.80,477.71 794.81,465.23 816.20,443.32 C821.86,437.52 824.00,432.77 824.00,426.00 C824.00,419.70 822.22,415.43 817.87,411.31 C813.64,407.31 810.20,406.00 803.90,406.00 C796.80,406.00 792.69,408.09 784.49,415.88 C762.87,436.42 730.09,438.64 702.31,421.45 C691.49,414.75 674.94,397.97 668.84,387.50 C663.02,377.52 658.94,367.28 655.90,355.00 C653.88,346.84 653.56,343.10 653.60,328.50 C653.65,313.50 653.96,310.38 656.23,301.93 C662.62,278.10 672.96,261.28 690.35,246.45 C696.64,241.08 697.00,240.53 697.00,236.47 C697.00,230.63 694.58,218.31 691.36,207.75 C689.30,201.01 688.27,199.00 686.90,199.00 C683.27,199.00 663.54,213.34 653.97,222.94 C640.98,235.96 635.17,244.05 626.99,260.50 C616.94,280.73 612.58,297.59 611.35,321.00 C610.55,336.32 612.14,352.33 617.98,387.91 C624.43,427.20 626.28,445.24 626.31,469.00 C626.36,512.98 616.32,554.85 596.73,592.36 C590.98,603.38 577.96,623.98 576.75,623.99 C575.49,624.00 575.84,202.88 577.10,192.50 C579.21,175.17 584.34,163.63 593.90,154.69 C603.00,146.18 615.57,141.99 631.91,142.02 C644.35,142.04 653.31,144.00 663.37,148.91 C691.57,162.66 710.92,192.60 714.98,228.73 C716.39,241.26 714.84,254.40 710.30,268.50 C706.08,281.61 703.84,286.21 696.39,297.16 C688.31,309.03 686.92,313.58 689.06,321.28 C692.34,333.09 707.17,339.48 718.53,333.99 C727.54,329.63 742.68,304.99 749.86,283.00 C754.83,267.79 756.05,260.56 756.68,242.73 L 757.28 225.96 L 760.89 226.62 C783.07,230.63 805.97,246.13 819.12,266.02 C826.30,276.88 833.12,292.67 834.59,301.82 L 835.22 305.76 L 818.86 306.25 C798.58,306.86 793.49,308.23 786.86,314.86 C779.20,322.51 778.21,331.21 783.96,340.28 C785.94,343.39 788.34,345.49 792.08,347.35 C798.13,350.37 800.12,350.50 808.50,348.48 C827.67,343.85 847.85,349.81 862.58,364.46 C870.97,372.80 876.04,381.10 880.29,393.45 C883.11,401.65 883.41,403.68 883.45,415.00 C883.49,425.39 883.11,428.76 881.16,435.00 C877.48,446.78 872.39,455.45 863.92,464.39 C853.57,475.33 845.38,480.09 830.24,483.99 C814.29,488.09 809.80,509.25 822.62,519.85 C829.92,525.87 836.15,526.22 850.50,521.42 C866.94,515.92 879.62,508.13 890.97,496.59 C894.53,492.96 897.93,490.00 898.53,490.00 C899.13,490.00 901.70,492.84 904.24,496.30 C914.66,510.49 921.04,526.08 925.09,547.24 C928.03,562.58 927.41,583.75 923.61,598.17 C919.36,614.25 912.75,628.34 903.61,640.75 C898.85,647.21 897.00,648.41 897.00,645.06 C897.00,643.99 895.47,638.44 893.60,632.73 C881.37,595.40 855.43,569.37 819.50,558.37 C810.97,555.76 809.46,555.62 790.50,555.60 C773.06,555.59 769.51,555.87 762.80,557.74 C752.02,560.75 740.66,565.42 732.80,570.07 C724.26,575.12 709.26,589.25 706.87,594.50 C702.31,604.49 707.01,616.25 717.50,621.10 C725.91,625.00 734.28,622.66 743.95,613.71 C757.58,601.09 779.12,594.41 797.91,596.99 C813.80,599.16 827.08,605.99 837.85,617.50 C844.95,625.09 848.84,631.72 852.79,643.00 C857.73,657.11 859.40,666.97 859.37,682.00 C859.28,733.39 827.49,781.64 783.62,796.94 C766.81,802.80 752.28,804.23 736.88,801.53 C709.65,796.76 687.15,782.46 668.73,758.22 C662.42,749.92 659.16,748.01 651.32,748.00 C644.03,748.00 640.54,749.15 636.66,752.81 C629.44,759.64 627.73,769.59 632.25,778.51 C635.21,784.34 646.86,797.97 656.07,806.37 C663.60,813.23 673.69,820.54 683.50,826.23 C687.35,828.47 690.66,830.43 690.86,830.59 C691.06,830.76 689.84,834.74 688.14,839.43 C683.41,852.50 681.72,864.52 682.15,882.06 C682.35,890.28 682.29,896.98 682.01,896.95 C681.73,896.92 678.12,892.13 674.00,886.29 C660.32,866.93 650.08,857.33 621.71,837.28 C589.45,814.49 577.56,797.50 576.27,772.36 C575.28,753.03 581.45,736.46 594.50,723.41 C600.26,717.64 603.67,715.25 612.08,711.11 C638.36,698.13 666.45,697.96 722.50,710.45 C748.54,716.25 756.41,717.34 773.00,717.42 C791.03,717.51 800.27,715.83 811.74,710.38 C833.15,700.20 843.94,675.47 836.45,653.75 C835.55,651.14 834.51,649.00 834.15,649.00 C833.78,649.00 830.44,651.91 826.72,655.48 C818.37,663.46 808.48,668.44 795.72,671.07 C778.95,674.53 770.62,673.76 724.50,664.50 C685.87,656.74 675.20,655.53 652.57,656.31 C614.41,657.63 587.14,668.13 564.26,690.34 C542.83,711.14 531.00,739.29 531.00,769.50 C531.00,791.91 537.84,813.67 550.49,831.50 C557.63,841.56 575.33,857.69 595.03,872.06 C614.69,886.41 628.52,898.90 640.19,912.85 C661.19,937.94 673.82,949.56 688.19,957.04 C702.41,964.44 717.23,966.68 730.76,963.49 ZM 394.50 884.50 C410.71,882.08 424.12,877.48 437.50,869.73 C462.71,855.13 482.93,830.63 491.55,804.26 C497.16,787.10 497.08,789.63 496.78,638.00 L 496.50 498.50 L 493.20 504.22 C485.78,517.04 470.83,534.47 459.07,544.00 L 451.04 550.50 L 451.02 665.59 C451.00,777.03 450.94,780.93 449.02,788.43 C446.51,798.23 442.34,806.71 435.71,815.52 C428.97,824.47 420.71,831.08 409.50,836.50 C397.35,842.37 387.61,844.39 374.64,843.75 C355.83,842.81 341.20,836.22 327.48,822.51 C318.56,813.59 312.34,802.80 309.34,791.00 C307.31,783.04 307.10,764.79 308.95,757.00 C314.68,732.85 331.99,713.67 355.00,705.98 C359.10,704.61 365.84,703.50 373.24,702.98 C386.95,702.02 391.61,700.07 396.37,693.29 C399.79,688.41 400.95,680.41 399.06,674.69 C397.50,669.94 390.16,663.31 385.51,662.44 C383.50,662.06 375.69,661.98 368.17,662.26 C357.30,662.66 352.66,663.31 345.50,665.44 C310.80,675.77 283.59,702.23 271.95,736.99 C264.63,758.84 264.15,783.49 270.61,805.79 C286.00,858.90 339.25,892.73 394.50,884.50 ZM 269.00 845.60 C269.00,845.38 267.12,842.12 264.82,838.35 C259.10,828.98 254.31,817.34 251.50,806.00 C250.21,800.78 247.55,793.53 245.58,789.89 C231.58,763.96 228.60,730.21 236.54,687.50 C240.38,666.84 249.60,638.37 262.09,608.62 L 267.50 595.75 L 274.00 592.78 C290.85,585.08 311.80,579.06 356.50,569.05 C404.16,558.39 430.59,546.06 453.68,523.72 C472.45,505.56 484.47,484.66 491.45,458.00 C496.96,436.96 496.99,436.39 497.00,344.16 L 497.00 258.81 L 491.75 259.50 C444.21,265.76 407.37,284.72 369.89,322.20 C341.94,350.14 315.60,388.70 283.96,448.00 C270.27,473.65 238.00,540.12 238.00,542.66 C238.00,542.84 241.04,541.12 244.75,538.84 C259.93,529.54 281.31,520.50 298.64,516.05 L 302.78 514.98 L 316.22 487.74 C346.91,425.54 371.76,386.85 399.28,358.37 C411.74,345.48 421.67,336.78 433.00,328.84 C439.78,324.08 450.12,318.00 451.42,318.00 C451.83,318.00 451.96,343.54 451.71,374.75 C451.33,422.05 450.98,432.74 449.63,438.97 C443.08,469.21 428.45,490.20 404.27,504.06 C388.25,513.24 373.48,518.17 341.61,524.98 C290.59,535.87 267.93,544.10 248.36,558.85 C219.95,580.26 206.88,603.01 194.02,653.50 C187.53,678.95 185.52,693.94 185.56,716.50 C185.60,741.13 188.04,758.36 194.13,777.00 C203.27,804.98 220.49,826.48 243.00,838.03 C251.21,842.24 269.00,847.42 269.00,845.60 ZM 186.43 805.31 C179.36,793.58 172.18,771.76 168.55,751.00 C166.25,737.82 165.44,710.28 166.92,695.50 C169.19,672.80 177.73,636.94 186.27,614.20 C188.17,609.14 189.41,605.00 189.02,605.00 C187.94,605.00 176.02,617.73 169.82,625.50 C162.62,634.52 156.30,644.41 151.11,654.75 C148.84,659.29 146.60,663.00 146.13,663.00 C144.79,663.00 128.87,646.11 124.03,639.54 C118.75,632.39 111.01,617.93 107.57,608.77 C101.14,591.70 99.08,566.79 102.50,547.50 C104.58,535.73 110.09,519.37 115.12,510.05 C119.61,501.71 127.90,490.00 129.31,490.00 C129.82,490.00 133.99,493.56 138.59,497.91 C148.32,507.12 158.46,513.73 170.21,518.52 C187.43,525.54 196.17,526.38 203.15,521.68 C209.64,517.30 213.76,508.14 212.57,500.70 C211.02,491.04 205.06,485.01 195.00,482.95 C191.98,482.33 186.12,480.20 182.00,478.21 C168.20,471.58 153.33,454.14 148.15,438.50 C140.36,415.03 145.00,389.24 160.47,369.98 C175.43,351.37 199.87,342.66 219.76,348.85 C231.06,352.37 237.78,358.59 244.32,371.61 C249.89,382.72 256.10,386.65 266.65,385.78 C280.07,384.67 288.81,370.98 284.53,357.75 C280.46,345.12 266.00,327.13 253.00,318.52 C238.78,309.10 226.57,305.74 206.75,305.81 L 193.00 305.86 L 193.60 303.18 C197.01,288.12 201.49,277.14 208.66,266.31 C218.19,251.91 234.75,238.24 250.16,232.07 C261.15,227.67 270.43,226.00 283.82,226.01 C308.07,226.02 324.79,233.01 344.92,251.55 C354.17,260.06 357.80,262.00 364.50,262.00 C372.29,262.00 378.87,257.87 382.80,250.52 C385.20,246.04 384.92,236.48 382.25,231.39 C379.45,226.04 364.67,212.25 354.50,205.48 C346.33,200.04 330.67,192.00 328.27,192.00 C321.55,192.00 334.76,171.02 348.74,159.48 C362.61,148.04 378.81,142.00 395.61,142.00 C407.64,142.00 413.66,143.30 423.63,148.06 C433.48,152.76 439.80,159.23 444.57,169.50 C450.20,181.63 451.15,188.31 451.72,219.81 C452.18,245.52 452.38,248.07 453.86,247.46 C457.85,245.83 479.33,241.96 487.75,241.36 L 497.00 240.70 L 496.99 218.10 C496.99,187.74 494.65,172.84 487.08,154.78 C476.85,130.41 455.25,112.06 427.72,104.37 C415.14,100.85 387.77,99.86 374.90,102.45 C351.64,107.13 331.39,117.84 313.87,134.74 C308.88,139.54 302.58,146.40 299.87,149.99 C295.19,156.16 284.01,176.92 282.77,181.75 C282.26,183.70 281.53,184.00 277.27,184.00 C270.31,184.00 254.90,186.78 245.50,189.72 C195.76,205.32 159.17,248.96 150.53,303.00 C149.69,308.23 149.01,314.99 149.00,318.02 L 149.00 323.54 L 141.43 329.86 C128.79,340.41 117.91,355.44 111.46,371.25 C101.65,395.33 99.76,420.24 106.04,442.89 L 108.05 450.16 L 101.01 457.69 C83.04,476.93 67.28,509.07 61.33,538.59 C58.53,552.45 58.82,585.84 61.86,600.00 C69.08,633.64 83.48,660.66 106.42,683.57 C113.06,690.21 122.55,698.44 127.50,701.86 C137.12,708.52 137.66,709.36 137.88,718.12 C138.05,724.74 140.58,738.43 143.04,746.00 C146.21,755.77 154.21,772.01 160.14,780.74 C165.03,787.93 187.02,811.00 188.99,811.00 C189.46,811.00 188.31,808.44 186.43,805.31 Z" fill="rgb(254,254,253)"/>
</g>
</svg>